<svg width="168" height="92" viewBox="0 0 168 92" fill="none" xmlns="http://www.w3.org/2000/svg">
<path d="M66.8438 59.3281C66.8438 61.0391 66.4922 62.6445 65.7891 64.1445C65.1094 65.6445 64.1836 66.957 63.0117 68.082C61.8633 69.207 60.5156 70.0977 58.9688 70.7539C57.4453 71.3867 55.8281 71.7031 54.1172 71.7031H50.4961C48.7852 71.7031 47.1562 71.3867 45.6094 70.7539C44.0859 70.0977 42.7383 69.207 41.5664 68.082C40.418 66.957 39.4922 65.6445 38.7891 64.1445C38.1094 62.6445 37.7695 61.0391 37.7695 59.3281V57.3242L42.3047 56.5859V59.3281C42.3047 60.4531 42.5273 61.5078 42.9727 62.4922C43.4414 63.4531 44.0625 64.3086 44.8359 65.0586C45.6094 65.7852 46.5 66.3594 47.5078 66.7812C48.5391 67.2031 49.6172 67.4141 50.7422 67.4141H53.9062C55.0312 67.4141 56.0977 67.2031 57.1055 66.7812C58.1133 66.3594 59.0039 65.7852 59.7773 65.0586C60.5508 64.3086 61.1602 63.4531 61.6055 62.4922C62.0742 61.5078 62.3086 60.4531 62.3086 59.3281V57.8164C62.3086 56.082 61.9688 54.6406 61.2891 53.4922C60.6094 52.3438 59.707 51.3711 58.582 50.5742C57.457 49.7539 56.1797 49.0625 54.75 48.5C53.3438 47.9375 51.8906 47.375 50.3906 46.8125C48.8906 46.25 47.4258 45.6289 45.9961 44.9492C44.5898 44.2695 43.3242 43.4258 42.1992 42.418C41.0742 41.3867 40.1719 40.1328 39.4922 38.6562C38.8125 37.1797 38.4727 35.3633 38.4727 33.207V32.2578C38.4727 30.5469 38.7891 28.9414 39.4219 27.4414C40.0781 25.9414 40.9688 24.6289 42.0938 23.5039C43.2188 22.3789 44.5312 21.5 46.0312 20.8672C47.5547 20.2109 49.1719 19.8828 50.8828 19.8828H54.1172C55.8281 19.8828 57.4336 20.2109 58.9336 20.8672C60.4336 21.5 61.7461 22.3789 62.8711 23.5039C63.9961 24.6289 64.875 25.9414 65.5078 27.4414C66.1641 28.9414 66.4922 30.5469 66.4922 32.2578V33.5586L61.957 34.2969V32.2578C61.957 31.1328 61.7461 30.0898 61.3242 29.1289C60.9023 28.1445 60.3281 27.2891 59.6016 26.5625C58.875 25.8359 58.0195 25.2617 57.0352 24.8398C56.0742 24.418 55.0312 24.207 53.9062 24.207H51.0938C49.9688 24.207 48.9141 24.418 47.9297 24.8398C46.9688 25.2617 46.1133 25.8359 45.3633 26.5625C44.6367 27.2891 44.0625 28.1445 43.6406 29.1289C43.2188 30.0898 43.0078 31.1328 43.0078 32.2578V33.207C43.0078 34.8242 43.3477 36.1836 44.0273 37.2852C44.707 38.3867 45.6094 39.3359 46.7344 40.1328C47.8594 40.9062 49.125 41.5859 50.5312 42.1719C51.9609 42.7344 53.4258 43.3203 54.9258 43.9297C56.4258 44.5156 57.8789 45.1719 59.2852 45.8984C60.7148 46.6016 61.9922 47.4805 63.1172 48.5352C64.2422 49.5664 65.1445 50.832 65.8242 52.332C66.5039 53.832 66.8438 55.6602 66.8438 57.8164V59.3281ZM124.254 71V36.4414L123.938 38.5859L112.23 71H109.84L98.0273 38.5859L97.7461 36.4414V71H93.2109V20.5859H95.5664L110.859 61.9297L111 63.793L111.141 61.9297L126.398 20.5859H128.789V71H124.254Z" fill="#6A6A6A"/>
<rect x="14" y="38" width="144" height="18" fill="white" fill-opacity="0.32"/>
<path d="M29.4734 49.7305C29.4734 50.0632 29.405 50.3753 29.2683 50.667C29.1361 50.9587 28.9561 51.2139 28.7282 51.4326C28.5049 51.6514 28.2429 51.8245 27.9421 51.9521C27.6459 52.0752 27.3314 52.1367 26.9987 52.1367H26.2946C25.962 52.1367 25.6452 52.0752 25.3445 51.9521C25.0482 51.8245 24.7862 51.6514 24.5583 51.4326C24.335 51.2139 24.155 50.9587 24.0183 50.667C23.8861 50.3753 23.82 50.0632 23.82 49.7305V49.3408L24.7019 49.1973V49.7305C24.7019 49.9492 24.7452 50.1543 24.8318 50.3457C24.9229 50.5326 25.0437 50.6989 25.1941 50.8447C25.3445 50.986 25.5176 51.0977 25.7136 51.1797C25.9141 51.2617 26.1237 51.3027 26.3425 51.3027H26.9577C27.1765 51.3027 27.3838 51.2617 27.5798 51.1797C27.7758 51.0977 27.9489 50.986 28.0993 50.8447C28.2497 50.6989 28.3682 50.5326 28.4548 50.3457C28.5459 50.1543 28.5915 49.9492 28.5915 49.7305V49.4365C28.5915 49.0993 28.5254 48.819 28.3933 48.5957C28.2611 48.3724 28.0857 48.1833 27.8669 48.0283C27.6482 47.8688 27.3998 47.7344 27.1218 47.625C26.8484 47.5156 26.5658 47.4062 26.2741 47.2969C25.9825 47.1875 25.6976 47.0667 25.4196 46.9346C25.1462 46.8024 24.9001 46.6383 24.6814 46.4424C24.4626 46.2419 24.2872 45.998 24.155 45.7109C24.0228 45.4238 23.9568 45.0706 23.9568 44.6514V44.4668C23.9568 44.1341 24.0183 43.8219 24.1413 43.5303C24.2689 43.2386 24.4421 42.9834 24.6609 42.7646C24.8796 42.5459 25.1348 42.375 25.4265 42.252C25.7227 42.1243 26.0372 42.0605 26.3698 42.0605H26.9987C27.3314 42.0605 27.6436 42.1243 27.9353 42.252C28.2269 42.375 28.4821 42.5459 28.7009 42.7646C28.9196 42.9834 29.0905 43.2386 29.2136 43.5303C29.3412 43.8219 29.405 44.1341 29.405 44.4668V44.7197L28.5232 44.8633V44.4668C28.5232 44.248 28.4821 44.0452 28.4001 43.8584C28.3181 43.667 28.2064 43.5007 28.0652 43.3594C27.9239 43.2181 27.7575 43.1064 27.5661 43.0244C27.3793 42.9424 27.1765 42.9014 26.9577 42.9014H26.4109C26.1921 42.9014 25.987 42.9424 25.7956 43.0244C25.6088 43.1064 25.4424 43.2181 25.2966 43.3594C25.1553 43.5007 25.0437 43.667 24.9616 43.8584C24.8796 44.0452 24.8386 44.248 24.8386 44.4668V44.6514C24.8386 44.9658 24.9047 45.2301 25.0368 45.4443C25.169 45.6585 25.3445 45.8431 25.5632 45.998C25.782 46.1484 26.028 46.2806 26.3015 46.3945C26.5795 46.5039 26.8643 46.6178 27.156 46.7363C27.4476 46.8503 27.7302 46.9779 28.0036 47.1191C28.2816 47.2559 28.53 47.4268 28.7487 47.6318C28.9675 47.8324 29.143 48.0785 29.2751 48.3701C29.4073 48.6618 29.4734 49.0173 29.4734 49.4365V49.7305ZM37.5337 52V42.1973H43.0504V43.0381H38.4156V46.6816H42.1685V47.5225H38.4156V51.1592H43.0504V52H37.5337ZM54.5766 49.7168H51.473L50.8305 52H49.9145L52.7855 42.1973H53.2504L56.1352 52H55.226L54.5766 49.7168ZM51.7123 48.876H54.3441L53.0521 44.3574L53.0248 43.9951L52.9975 44.3574L51.7123 48.876ZM68.6047 52L64.5168 44.8633L64.4348 44.4395V52H63.553V42.1973H64.011L68.0989 49.3408L68.1877 49.7578V42.1973H69.0696V52H68.6047ZM92.9013 52V45.2803L92.8398 45.6973L90.5634 52H90.0986L87.8017 45.6973L87.747 45.2803V52H86.8652V42.1973H87.3232L90.2968 50.2363L90.3241 50.5986L90.3515 50.2363L93.3183 42.1973H93.7831V52H92.9013ZM107.558 49.7305C107.558 50.0632 107.495 50.3753 107.367 50.667C107.244 50.9587 107.073 51.2139 106.854 51.4326C106.636 51.6514 106.38 51.8245 106.089 51.9521C105.797 52.0752 105.485 52.1367 105.152 52.1367H104.455C104.122 52.1367 103.808 52.0752 103.511 51.9521C103.22 51.8245 102.965 51.6514 102.746 51.4326C102.527 51.2139 102.354 50.9587 102.226 50.667C102.103 50.3753 102.042 50.0632 102.042 49.7305V44.4668C102.042 44.1341 102.103 43.8219 102.226 43.5303C102.354 43.2386 102.527 42.9834 102.746 42.7646C102.965 42.5459 103.22 42.375 103.511 42.252C103.808 42.1243 104.122 42.0605 104.455 42.0605H105.152C105.485 42.0605 105.797 42.1243 106.089 42.252C106.38 42.375 106.636 42.5459 106.854 42.7646C107.073 42.9834 107.244 43.2386 107.367 43.5303C107.495 43.8219 107.558 44.1341 107.558 44.4668V49.7305ZM106.677 44.4668C106.677 44.248 106.636 44.0452 106.553 43.8584C106.471 43.667 106.36 43.5007 106.219 43.3594C106.077 43.2181 105.911 43.1064 105.719 43.0244C105.533 42.9424 105.33 42.9014 105.111 42.9014H104.496C104.277 42.9014 104.072 42.9424 103.881 43.0244C103.694 43.1064 103.527 43.2181 103.382 43.3594C103.24 43.5007 103.129 43.667 103.047 43.8584C102.965 44.0452 102.924 44.248 102.924 44.4668V49.7305C102.924 49.9492 102.965 50.1543 103.047 50.3457C103.129 50.5326 103.24 50.6989 103.382 50.8447C103.527 50.986 103.694 51.0977 103.881 51.1797C104.072 51.2617 104.277 51.3027 104.496 51.3027H105.111C105.33 51.3027 105.533 51.2617 105.719 51.1797C105.911 51.0977 106.077 50.986 106.219 50.8447C106.36 50.6989 106.471 50.5326 106.553 50.3457C106.636 50.1543 106.677 49.9492 106.677 49.7305V44.4668ZM121.197 49.7305C121.197 50.0632 121.133 50.3753 121.005 50.667C120.882 50.9587 120.712 51.2139 120.493 51.4326C120.274 51.6514 120.019 51.8245 119.727 51.9521C119.435 52.0752 119.123 52.1367 118.791 52.1367H118.093C117.761 52.1367 117.446 52.0752 117.15 51.9521C116.858 51.8245 116.603 51.6514 116.384 51.4326C116.166 51.2139 115.992 50.9587 115.865 50.667C115.742 50.3753 115.68 50.0632 115.68 49.7305V44.4668C115.68 44.1341 115.742 43.8219 115.865 43.5303C115.992 43.2386 116.166 42.9834 116.384 42.7646C116.603 42.5459 116.858 42.375 117.15 42.252C117.446 42.1243 117.761 42.0605 118.093 42.0605H118.791C119.123 42.0605 119.435 42.1243 119.727 42.252C120.019 42.375 120.274 42.5459 120.493 42.7646C120.712 42.9834 120.882 43.2386 121.005 43.5303C121.133 43.8219 121.197 44.1341 121.197 44.4668V49.7305ZM120.315 44.4668C120.315 44.248 120.274 44.0452 120.192 43.8584C120.11 43.667 119.998 43.5007 119.857 43.3594C119.716 43.2181 119.549 43.1064 119.358 43.0244C119.171 42.9424 118.968 42.9014 118.75 42.9014H118.134C117.916 42.9014 117.711 42.9424 117.519 43.0244C117.332 43.1064 117.166 43.2181 117.02 43.3594C116.879 43.5007 116.767 43.667 116.685 43.8584C116.603 44.0452 116.562 44.248 116.562 44.4668V49.7305C116.562 49.9492 116.603 50.1543 116.685 50.3457C116.767 50.5326 116.879 50.6989 117.02 50.8447C117.166 50.986 117.332 51.0977 117.519 51.1797C117.711 51.2617 117.916 51.3027 118.134 51.3027H118.75C118.968 51.3027 119.171 51.2617 119.358 51.1797C119.549 51.0977 119.716 50.986 119.857 50.8447C119.998 50.6989 120.11 50.5326 120.192 50.3457C120.274 50.1543 120.315 49.9492 120.315 49.7305V44.4668ZM134.07 52L131.411 47.8164H130.201V52H129.319V42.1973H132.429C132.762 42.1973 133.074 42.2611 133.366 42.3887C133.657 42.5117 133.913 42.6826 134.131 42.9014C134.35 43.1201 134.521 43.3776 134.644 43.6738C134.772 43.9655 134.835 44.2777 134.835 44.6104V45.4033C134.835 45.736 134.772 46.0505 134.644 46.3467C134.521 46.6383 134.35 46.8936 134.131 47.1123C133.913 47.3311 133.657 47.5042 133.366 47.6318C133.074 47.7549 132.762 47.8164 132.429 47.8164L135.088 52H134.07ZM133.954 44.6104C133.954 44.3916 133.913 44.1888 133.831 44.002C133.748 43.8105 133.637 43.6442 133.496 43.5029C133.354 43.3571 133.188 43.2432 132.997 43.1611C132.81 43.0791 132.607 43.0381 132.388 43.0381H130.201V46.9756H132.388C132.607 46.9756 132.81 46.9346 132.997 46.8525C133.188 46.7705 133.354 46.6589 133.496 46.5176C133.637 46.3717 133.748 46.2054 133.831 46.0186C133.913 45.8271 133.954 45.6221 133.954 45.4033V44.6104ZM142.937 52V42.1973H148.453V43.0381H143.819V46.6816H147.572V47.5225H143.819V51.1592H148.453V52H142.937Z" fill="black"/>
</svg>
